<svg width="134px" height="38px" viewBox="369 392 134 38" version="1.1" xmlns="http://www.w3.org/2000/svg" xmlns:xlink="http://www.w3.org/1999/xlink">
    <g id="logo" stroke="none" stroke-width="1" fill="none" fill-rule="evenodd" transform="translate(369.000000, 393.000000)">
        <polygon id="Fill-2" fill="#221F20" points="0.25761228 4.25569253 0.25761228 8.9183538 10.8526584 8.9183538 3.92641793e-05 22.3796884 3.92641793e-05 27.1807234 17.9696836 27.1807234 17.9696836 22.3884725 6.63391868 22.3884725 17.744209 8.69164593 17.744209 4.25569253"></polygon>
        <polygon id="Fill-3" fill="#221F20" points="27.9848567 27.1805655 33.5239526 27.1805655 33.5239526 4.25563331 27.9848567 4.25563331"></polygon>
        <polygon id="Fill-4" fill="#221F20" points="43.5712046 27.1806445 43.5712046 22.3797082 54.4239219 8.91837354 43.8287776 8.91837354 43.8287776 4.25571227 61.3154725 4.25571227 61.3154725 8.69166567 50.2051821 22.3883935 61.5408489 22.3883935 61.5408489 27.1806445"></polygon>
        <path d="M121.181518,14.5524834 L125.110291,14.5524834 C128.21118,14.5524834 130.681584,13.4795443 130.681584,10.3755119 C130.681584,7.24996354 128.218935,6.26328591 125.110291,6.26328591 L121.181518,6.26328591 L121.181518,14.5524834 Z M118.86287,4.25568266 L125.303569,4.25568266 C129.643439,4.25568266 133.000232,6.0119037 133.000232,10.3755119 C133.000232,14.7210586 129.541745,16.527714 125.239176,16.527714 L121.181518,16.527714 L121.181518,27.1806149 L118.86287,27.1806149 L118.86287,4.25568266 Z" id="Fill-8" fill="#DC4130"></path>
        <path d="M83.9634045,-3.9478949e-05 L81.6527075,36.5032824 L114.633833,36.7244633 L112.920148,0.194098253 L83.9634045,-3.9478949e-05 Z M97.9629298,27.7634722 C92.4038092,27.7634722 89.4289586,24.0156369 89.4289586,18.6322874 L89.4289586,4.25563331 L91.7476066,4.25563331 L91.7476066,18.3732068 C91.7476066,22.6076201 93.7504723,25.6911235 97.9629298,25.6911235 C102.174798,25.6911235 104.178155,22.6079162 104.178155,18.3732068 L104.178155,4.25563331 L106.496901,4.25563331 L106.496901,18.6322874 C106.496901,24.0253092 103.506541,27.7634722 97.9629298,27.7634722 Z" id="Combined-Shape" fill="#DC4130"></path>
        <polygon id="Fill-5" fill="#221F20" points="71.5561201 27.1805655 77.0952161 27.1805655 77.0952161 4.25563331 71.5561201 4.25563331"></polygon>
    </g>
</svg>
